# xmcd
#
# Track frame offsets:
#	150
#	14913
#	31000
#	45540
#	58614
#	73834
#	89385
#	103199
#	115211
#	129790
#	142764
#	156433
#	172976
#	193984
#	207683
#	223962
#	237881
#	252723
#	271956
#	287813
#	299225
#
# Disc length: 4159 seconds
#
# Revision: 1
# Processed by: cddbd v1.5.2PL0 Copyright (c) Steve Scherf et al.
# Submitted via: dBpowerAMP V4.0
#
DISCID=56103d15
DTITLE=Various Artist - Hott Country Volume 275 Can
DYEAR=2019
DGENRE=Country
TTITLE0=Eric Church - Some Of It
TTITLE1=Madeline Merlo - Unraveling
TTITLE2=Kane Brown - Good As You
TTITLE3=Jess Moskaluke - Save Some Of That Whiskey
TTITLE4=Big and Rich - Brand New Buzz
TTITLE5=Ashley McBryde - Girl Goin' Nowhere
TTITLE6=Andrew Hyatt - My Kind Of Crazy
TTITLE7=Haley and Michaels - Taking Off
TTITLE8=Kira Isabella - Danger Danger
TTITLE9=Toby Keith - Don't Let The Old Man In
TTITLE10=Dan Davidson - Cinderella
TTITLE11=Denny Strickland - Don't You Wanna
TTITLE12=Black Mountain Whiskey Rebellion - Holy Smoke
TTITLE13=Granger Smith - You're In It [Remix]
TTITLE14=Genevieve Fisher - Nothin' With You
TTITLE15=Garth Brooks - Stronger Than Me [Live From The CMAS]
TTITLE16=Codie Prevost - In My Book
TTITLE17=Ryan Sims - Get Away
TTITLE18=Matt Stell - Prayed For You
TTITLE19=Jessica Lynn - Let's Don't
TTITLE20=Southern Halo - I Think Too Much
EXTD=
EXTT0=
EXTT1=
EXTT2=
EXTT3=
EXTT4=
EXTT5=
EXTT6=
EXTT7=
EXTT8=
EXTT9=
EXTT10=
EXTT11=
EXTT12=
EXTT13=
EXTT14=
EXTT15=
EXTT16=
EXTT17=
EXTT18=
EXTT19=
EXTT20=
PLAYORDER=
